<svg xmlns="http://www.w3.org/2000/svg" version="1.1" xmlns:xlink="http://www.w3.org/1999/xlink" width="512" height="512" x="0" y="0" viewBox="0 0 512 512" style="enable-background:new 0 0 512 512" xml:space="preserve" class=""><g><linearGradient id="a" x1="439.572" x2="143.27" y1="62.327" y2="575.537" data-name="GradientFill 1" gradientUnits="userSpaceOnUse"><stop offset="0" stop-color="#00bef1"></stop><stop offset=".42" stop-color="#3382c4"></stop><stop offset=".73" stop-color="#4168b1"></stop><stop offset="1" stop-color="#4168b1"></stop></linearGradient><path fill="url(#a)" fill-rule="evenodd" d="M502 463.809c-.804-22.061-18.16-36.577-40.749-43.56-9.007 7.819-20.764 12.552-33.625 12.552s-24.619-4.733-33.626-12.552c-22.588 6.981-39.944 21.499-40.749 43.559v34.785H502v-34.785zM160.299 152.102h191.403c6.478 0 11.779-5.301 11.779-11.779V25.185c0-6.478-5.301-11.779-11.779-11.779H160.299c-6.478 0-11.779 5.301-11.779 11.779v115.138c0 6.478 5.301 11.779 11.779 11.779zm34.802-85.248c8.781 0 15.9 7.119 15.9 15.9s-7.119 15.9-15.9 15.9-15.9-7.119-15.9-15.9 7.119-15.9 15.9-15.9zm60.9 0c8.781 0 15.9 7.119 15.9 15.9s-7.119 15.9-15.9 15.9-15.9-7.119-15.9-15.9 7.119-15.9 15.9-15.9zm60.9 0c8.781 0 15.9 7.119 15.9 15.9s-7.119 15.9-15.9 15.9-15.9-7.119-15.9-15.9 7.119-15.9 15.9-15.9zM90.376 316.473a6 6 0 1 1-12 0v-57.507a6.002 6.002 0 0 1 4.768-5.873l166.858-44.709v-29.501a6 6 0 1 1 12 0v29.501l167.172 44.794a5.994 5.994 0 0 1 4.446 5.789h.007v57.507a6 6 0 1 1-12 0v-52.911l-159.625-42.771v95.682a6 6 0 1 1-12 0v-95.682L90.377 263.563v52.911zm337.251 25.68c21.718 0 39.324 17.606 39.324 39.324s-17.606 39.324-39.324 39.324-39.324-17.606-39.324-39.324 17.606-39.324 39.324-39.324zm-343.251 0c-21.718 0-39.324 17.606-39.324 39.324s17.606 39.324 39.324 39.324 39.324-17.606 39.324-39.324-17.606-39.324-39.324-39.324zm171.625 0c-21.718 0-39.324 17.606-39.324 39.324s17.606 39.324 39.324 39.324 39.324-17.606 39.324-39.324-17.606-39.324-39.324-39.324zM158.75 463.809v34.785H10v-34.785c.805-22.06 18.161-36.578 40.749-43.559 9.007 7.819 20.765 12.552 33.626 12.552s24.618-4.734 33.625-12.552c22.589 6.983 39.944 21.499 40.749 43.56zm171.626 0v34.785H181.627v-34.785c.805-22.061 18.161-36.579 40.749-43.56 9.007 7.819 20.764 12.552 33.625 12.552s24.618-4.733 33.625-12.552c22.589 6.982 39.944 21.499 40.749 43.559z" opacity="1" data-original="url(#a)" class=""></path></g></svg>