<svg xmlns="http://www.w3.org/2000/svg" version="1.1" xmlns:xlink="http://www.w3.org/1999/xlink" width="512" height="512" x="0" y="0" viewBox="0 0 64 64" style="enable-background:new 0 0 512 512" xml:space="preserve" fill-rule="evenodd" class=""><g><path fill="#29f5b7" d="M51.9 43.382a1.996 1.996 0 0 0-3.8 0l-1.9 5.823-5.82 1.893C39.56 51.366 39 52.134 39 53s.56 1.634 1.38 1.902l5.82 1.893 1.9 5.823a1.996 1.996 0 0 0 3.8 0l1.9-5.823 5.82-1.893C60.44 54.634 61 53.866 61 53s-.56-1.634-1.38-1.902l-5.82-1.893-1.9-5.823z" opacity="1" data-original="#29f5b7"></path><path fill="#29ddf5" d="M0 36.999V37c0 1.461.94 2.759 2.33 3.211l14.69 4.774 4.77 14.683a3.376 3.376 0 0 0 6.42 0l4.78-14.683 14.68-4.774A3.377 3.377 0 0 0 50 37v-.001c0-1.462-.94-2.758-2.33-3.21l-14.68-4.774-4.78-14.683a3.375 3.375 0 0 0-6.42 0l-4.77 14.683-14.69 4.774A3.374 3.374 0 0 0 0 36.999z" opacity="1" data-original="#29ddf5" class=""></path><path fill="#a2edf7" d="M50.9 1.382a1.996 1.996 0 0 0-3.8 0l-2.88 8.841-8.84 2.875C34.56 13.366 34 14.134 34 15s.56 1.634 1.38 1.902l8.84 2.875 2.88 8.841a1.996 1.996 0 0 0 3.8 0l2.88-8.841 8.84-2.875C63.44 16.634 64 15.866 64 15s-.56-1.634-1.38-1.902l-8.84-2.875-2.88-8.841z" opacity="1" data-original="#a2edf7" class=""></path><path fill="#29b7f5" d="M8 13H6c-1.1 0-2 .896-2 2s.9 2 2 2h2v2c0 1.104.9 2 2 2s2-.896 2-2v-2h2c1.1 0 2-.896 2-2s-.9-2-2-2h-2v-2c0-1.104-.9-2-2-2s-2 .896-2 2z" opacity="1" data-original="#29b7f5"></path></g></svg>