<svg xmlns="http://www.w3.org/2000/svg" viewBox="0 0 24 24" id="docker">
    <path fill="#ffffff"
        d="M8.113 20.5c-2.764 0-4.892-.854-6.324-2.54C.415 16.342-.265 13.853.096 11.764a.5.5 0 0 1 .493-.415H16.21a3.28 3.28 0 0 0 1.043-.139c-.512-1.257-.211-2.79.413-3.728l.334-.5a.5.5 0 0 1 .691-.14l.503.332c.844.645 1.364 1.343 1.594 2.136.867-.075 1.919.042 2.514.44l.476.316a.5.5 0 0 1 .172.637l-.056.115a13.37 13.37 0 0 1-.26.517c-.882 1.667-2.529 1.861-3.391 1.875-2.094 4.705-6.388 7.29-12.13 7.29zm-7.088-8.151c-.166 1.719.423 3.666 1.525 4.964C3.785 18.764 5.656 19.5 8.113 19.5c5.437 0 9.464-2.48 11.339-6.984.079-.189.278-.289.471-.308.98.021 2.183-.118 2.83-1.347l.014-.025c.019-.032.054-.1.092-.179l-.113-.076c-.357-.238-1.396-.383-2.259-.224a.498.498 0 0 1-.587-.423c-.101-.724-.521-1.36-1.286-1.946l-.059-.038-.059.087c-.533.8-.735 2.234-.13 3.154a.5.5 0 0 1-.182.714c-.258.139-.954.46-1.984.442H1.025z"></path>
    <path fill="#ffffff"
        d="M16 12.342H1.501a.5.5 0 0 1-.5-.5V8.994a.5.5 0 0 1 .5-.5H16a.5.5 0 0 1 .5.5v2.848a.5.5 0 0 1-.5.5zm-13.999-1H15.5V9.494H2.001v1.848z"></path>
    <path fill="#ffffff"
        d="M13 9.494H4a.5.5 0 0 1-.5-.5V6.146a.5.5 0 0 1 .5-.5h9a.5.5 0 0 1 .5.5v2.849a.5.5 0 0 1-.5.499zm-8.5-1h8V6.646h-8v1.848z"></path>
    <path fill="#ffffff"
        d="M13 12.342h-3a.5.5 0 0 1-.5-.5V3.297a.5.5 0 0 1 .5-.5h3a.5.5 0 0 1 .5.5v8.545a.5.5 0 0 1-.5.5zm-2.5-1h2V3.797h-2v7.545z"></path>
    <path fill="#ffffff"
        d="M10 12.342H7a.5.5 0 0 1-.5-.5V6.146a.5.5 0 0 1 .5-.5h3a.5.5 0 0 1 .5.5v5.697a.5.5 0 0 1-.5.499zm-2.5-1h2V6.646h-2v4.696z"></path>
    <path fill="#ffffff"
        d="M7 12.342H4a.5.5 0 0 1-.5-.5V8.994a.5.5 0 0 1 .5-.5h3a.5.5 0 0 1 .5.5v2.848a.5.5 0 0 1-.5.5zm-2.5-1h2V9.494h-2v1.848z"></path>
</svg>