<svg xmlns="http://www.w3.org/2000/svg" viewBox="0 0 24 24" id="elastic-stack">
    <path fill="#ffffff"
        d="M21.206 24h-8.127a.5.5 0 0 1-.5-.5v-6.652a.5.5 0 0 1 .5-.5H23.5a.5.5 0 0 1 .5.5v4.357C24 22.72 22.72 24 21.206 24zm-7.627-1h7.627c.956 0 1.794-.838 1.794-1.794v-3.857h-9.421V23zm-2.657 1H2.794A2.778 2.778 0 0 1 0 21.279v-4.432a.5.5 0 0 1 .5-.5h10.422a.5.5 0 0 1 .5.5V23.5a.5.5 0 0 1-.5.5zM1 17.348v3.918c.024.951.829 1.734 1.793 1.734h7.628v-5.652H1zM23.5 7.152H.5a.5.5 0 0 1-.5-.5V2.79A2.827 2.827 0 0 1 2.789 0h18.417A2.827 2.827 0 0 1 24 2.789v3.863a.5.5 0 0 1-.5.5zm-22.5-1h22V2.793A1.82 1.82 0 0 0 21.201 1H2.793A1.82 1.82 0 0 0 1 2.796v3.356zm22.5 9.049H.5a.5.5 0 0 1-.5-.5V8.799a.5.5 0 0 1 .5-.5h23a.5.5 0 0 1 .5.5v5.902a.5.5 0 0 1-.5.5zm-22.5-1h22V9.299H1v4.902z"></path>
</svg>