<?xml version="1.0" encoding="UTF-8"?>
<!DOCTYPE svg PUBLIC "-//W3C//DTD SVG 1.1//EN" "http://www.w3.org/Graphics/SVG/1.1/DTD/svg11.dtd">
<svg xmlns="http://www.w3.org/2000/svg" version="1.1" width="600px" height="600px" style="shape-rendering:geometricPrecision; text-rendering:geometricPrecision; image-rendering:optimizeQuality; fill-rule:evenodd; clip-rule:evenodd" xmlns:xlink="http://www.w3.org/1999/xlink">
<g><path style="opacity:0.991" fill="#28e98c" d="M 244.5,-0.5 C 326.833,-0.5 409.167,-0.5 491.5,-0.5C 491.34,1.19919 491.506,2.86586 492,4.5C 498.845,14.8552 506.178,24.8552 514,34.5C 516.194,38.7486 518.194,43.082 520,47.5C 526,55.5 532,63.5 538,71.5C 539.129,78.1792 540.962,84.6792 543.5,91C 543,92.5 542.5,94 542,95.5C 541.251,115.034 541.751,134.534 543.5,154C 543,157.5 542.5,161 542,164.5C 539.634,174.635 536.967,184.635 534,194.5C 532.81,199.213 530.81,203.547 528,207.5C 523.554,222.867 518.72,238.034 513.5,253C 513.667,253.833 513.833,254.667 514,255.5C 521.213,260.593 524.713,267.593 524.5,276.5C 523.868,292.767 516.868,305.433 503.5,314.5C 500.479,317.686 497.646,321.02 495,324.5C 491.788,333.616 489.121,342.949 487,352.5C 479.87,359.972 473.87,368.306 469,377.5C 461.693,384.265 455.193,391.765 449.5,400C 438.556,405.491 429.556,413.324 422.5,423.5C 424.492,427.474 426.992,431.141 430,434.5C 441.38,458.93 454.046,482.596 468,505.5C 495.025,526.197 522.858,545.697 551.5,564C 560.667,570.833 569.833,577.667 579,584.5C 579.617,585.449 579.451,586.282 578.5,587C 570.9,592.8 562.567,596.967 553.5,599.5C 384.5,599.5 215.5,599.5 46.5,599.5C 21.8333,592.833 6.16667,577.167 -0.5,552.5C -0.5,510.5 -0.5,468.5 -0.5,426.5C 30.6614,425.345 61.6614,422.179 92.5,417C 102.167,416.667 111.833,416.333 121.5,416C 145.998,406.334 169.165,394.168 191,379.5C 192.092,376.956 192.759,374.289 193,371.5C 194.543,354.472 196.043,337.472 197.5,320.5C 195.357,305.452 193.357,290.286 191.5,275C 193.489,268.823 191.489,266.989 185.5,269.5C 178.883,269.017 172.883,266.85 167.5,263C 165.959,261.421 164.792,259.587 164,257.5C 162.212,236.85 159.378,216.35 155.5,196C 157.5,181.667 164.167,170 175.5,161C 181.548,157.755 187.881,156.922 194.5,158.5C 196.27,134.807 198.77,111.14 202,87.5C 206.242,76.3483 211.576,65.6817 218,55.5C 219.882,46.5258 222.548,37.8591 226,29.5C 232.451,23.2197 237.951,16.2197 242.5,8.5C 243.933,5.66695 244.6,2.66695 244.5,-0.5 Z"/></g>
</svg>
