<svg width="165" height="36" viewBox="0 0 165 36" fill="none" xmlns="http://www.w3.org/2000/svg">
<path d="M10.96 35.28C8.90667 35.28 7.06667 34.9467 5.44 34.28C3.81333 33.6133 2.50667 32.6267 1.52 31.32C0.56 30.0133 0.0533333 28.44 0 26.6H7.28C7.38667 27.64 7.74667 28.44 8.36 29C8.97333 29.5333 9.77333 29.8 10.76 29.8C11.7733 29.8 12.5733 29.5733 13.16 29.12C13.7467 28.64 14.04 27.9867 14.04 27.16C14.04 26.4667 13.8 25.8933 13.32 25.44C12.8667 24.9867 12.2933 24.6133 11.6 24.32C10.9333 24.0267 9.97333 23.6933 8.72 23.32C6.90667 22.76 5.42667 22.2 4.28 21.64C3.13333 21.08 2.14667 20.2533 1.32 19.16C0.493333 18.0667 0.08 16.64 0.08 14.88C0.08 12.2667 1.02667 10.2267 2.92 8.76C4.81333 7.26667 7.28 6.52 10.32 6.52C13.4133 6.52 15.9067 7.26667 17.8 8.76C19.6933 10.2267 20.7067 12.28 20.84 14.92H13.44C13.3867 14.0133 13.0533 13.3067 12.44 12.8C11.8267 12.2667 11.04 12 10.08 12C9.25333 12 8.58667 12.2267 8.08 12.68C7.57333 13.1067 7.32 13.7333 7.32 14.56C7.32 15.4667 7.74667 16.1733 8.6 16.68C9.45333 17.1867 10.7867 17.7333 12.6 18.32C14.4133 18.9333 15.88 19.52 17 20.08C18.1467 20.64 19.1333 21.4533 19.96 22.52C20.7867 23.5867 21.2 24.96 21.2 26.64C21.2 28.24 20.7867 29.6933 19.96 31C19.16 32.3067 17.9867 33.3467 16.44 34.12C14.8933 34.8933 13.0667 35.28 10.96 35.28Z" fill="white"/>
<path d="M39.1294 12.44C41.6894 12.44 43.7427 13.2933 45.2894 15C46.836 16.68 47.6094 19 47.6094 21.96V35H40.8094V22.88C40.8094 21.3867 40.4227 20.2267 39.6494 19.4C38.876 18.5733 37.836 18.16 36.5294 18.16C35.2227 18.16 34.1827 18.5733 33.4094 19.4C32.636 20.2267 32.2494 21.3867 32.2494 22.88V35H25.4094V5.4H32.2494V15.68C32.9427 14.6933 33.8894 13.9067 35.0894 13.32C36.2894 12.7333 37.636 12.44 39.1294 12.44Z" fill="white"/>
<path d="M51.0025 23.8C51.0025 21.5067 51.4292 19.4933 52.2825 17.76C53.1625 16.0267 54.3492 14.6933 55.8425 13.76C57.3358 12.8267 59.0025 12.36 60.8425 12.36C62.4158 12.36 63.7892 12.68 64.9625 13.32C66.1625 13.96 67.0825 14.8 67.7225 15.84V12.68H74.5625V35H67.7225V31.84C67.0558 32.88 66.1225 33.72 64.9225 34.36C63.7492 35 62.3758 35.32 60.8025 35.32C58.9892 35.32 57.3358 34.8533 55.8425 33.92C54.3492 32.96 53.1625 31.6133 52.2825 29.88C51.4292 28.12 51.0025 26.0933 51.0025 23.8ZM67.7225 23.84C67.7225 22.1333 67.2425 20.7867 66.2825 19.8C65.3492 18.8133 64.2025 18.32 62.8425 18.32C61.4825 18.32 60.3225 18.8133 59.3625 19.8C58.4292 20.76 57.9625 22.0933 57.9625 23.8C57.9625 25.5067 58.4292 26.8667 59.3625 27.88C60.3225 28.8667 61.4825 29.36 62.8425 29.36C64.2025 29.36 65.3492 28.8667 66.2825 27.88C67.2425 26.8933 67.7225 25.5467 67.7225 23.84Z" fill="white"/>
<path d="M93.1509 35L86.3509 25.64V35H79.5109V5.4H86.3509V21.76L93.1109 12.68H101.551L92.2709 23.88L101.631 35H93.1509Z" fill="white"/>
<path d="M107.677 10.36C106.478 10.36 105.491 10.0133 104.717 9.32C103.971 8.6 103.598 7.72 103.598 6.68C103.598 5.61333 103.971 4.73333 104.717 4.04C105.491 3.32 106.478 2.96 107.677 2.96C108.851 2.96 109.811 3.32 110.558 4.04C111.331 4.73333 111.717 5.61333 111.717 6.68C111.717 7.72 111.331 8.6 110.558 9.32C109.811 10.0133 108.851 10.36 107.677 10.36ZM111.077 12.68V35H104.238V12.68H111.077Z" fill="white"/>
<path d="M122.874 15.84C123.514 14.8 124.434 13.96 125.634 13.32C126.834 12.68 128.208 12.36 129.754 12.36C131.594 12.36 133.261 12.8267 134.754 13.76C136.248 14.6933 137.421 16.0267 138.274 17.76C139.154 19.4933 139.594 21.5067 139.594 23.8C139.594 26.0933 139.154 28.12 138.274 29.88C137.421 31.6133 136.248 32.96 134.754 33.92C133.261 34.8533 131.594 35.32 129.754 35.32C128.181 35.32 126.808 35.0133 125.634 34.4C124.461 33.76 123.541 32.92 122.874 31.88V35H116.034V5.4H122.874V15.84ZM132.634 23.8C132.634 22.0933 132.154 20.76 131.194 19.8C130.261 18.8133 129.101 18.32 127.714 18.32C126.354 18.32 125.194 18.8133 124.234 19.8C123.301 20.7867 122.834 22.1333 122.834 23.84C122.834 25.5467 123.301 26.8933 124.234 27.88C125.194 28.8667 126.354 29.36 127.714 29.36C129.074 29.36 130.234 28.8667 131.194 27.88C132.154 26.8667 132.634 25.5067 132.634 23.8Z" fill="white"/>
<path d="M154.394 16.1111C153.638 16.1111 152.958 15.9802 152.355 15.7184C151.763 15.4457 151.297 15.0748 150.957 14.6057C150.617 14.1258 150.442 13.5749 150.431 12.9531H152.026C152.081 13.4876 152.3 13.9403 152.684 14.3112C153.079 14.6712 153.649 14.8512 154.394 14.8512C155.107 14.8512 155.666 14.6766 156.071 14.3276C156.488 13.9676 156.696 13.5094 156.696 12.9531C156.696 12.5168 156.576 12.1622 156.334 11.8895C156.093 11.6168 155.792 11.4095 155.43 11.2677C155.068 11.1259 154.58 10.9732 153.966 10.8096C153.21 10.6132 152.602 10.4169 152.141 10.2205C151.692 10.0242 151.303 9.71872 150.974 9.30419C150.656 8.87876 150.497 8.31152 150.497 7.60246C150.497 6.98068 150.656 6.4298 150.974 5.94982C151.292 5.46985 151.736 5.09896 152.306 4.83715C152.887 4.57535 153.55 4.44444 154.295 4.44444C155.37 4.44444 156.247 4.7117 156.926 5.24622C157.617 5.78074 158.006 6.48979 158.094 7.37338H156.449C156.395 6.93704 156.164 6.55524 155.759 6.22799C155.353 5.88982 154.816 5.72074 154.147 5.72074C153.522 5.72074 153.013 5.88437 152.618 6.21163C152.223 6.52797 152.026 6.97522 152.026 7.55337C152.026 7.9679 152.141 8.30606 152.371 8.56787C152.613 8.82967 152.903 9.03148 153.243 9.17329C153.594 9.30419 154.082 9.45691 154.706 9.63145C155.463 9.83871 156.071 10.046 156.532 10.2532C156.992 10.4496 157.387 10.7605 157.716 11.1859C158.044 11.6004 158.209 12.1677 158.209 12.8876C158.209 13.444 158.061 13.9676 157.765 14.4585C157.469 14.9494 157.03 15.3475 156.449 15.653C155.868 15.9584 155.183 16.1111 154.394 16.1111Z" fill="white"/>
<path fill-rule="evenodd" clip-rule="evenodd" d="M154.32 20C159.843 20 164.32 15.5228 164.32 10C164.32 4.47715 159.843 0 154.32 0C148.797 0 144.32 4.47715 144.32 10C144.32 15.5228 148.797 20 154.32 20ZM154.32 18.8235C159.193 18.8235 163.144 14.8731 163.144 10C163.144 5.1269 159.193 1.17647 154.32 1.17647C149.447 1.17647 145.496 5.1269 145.496 10C145.496 14.8731 149.447 18.8235 154.32 18.8235Z" fill="white"/>
</svg>
