<svg xmlns="http://www.w3.org/2000/svg" version="1.1" xmlns:xlink="http://www.w3.org/1999/xlink" width="512" height="512" x="0" y="0" viewBox="0 0 512 512" style="enable-background:new 0 0 512 512" xml:space="preserve" class=""><g><path fill="#2d5ede" d="M426 240.214c-.391 0-.778.004-1.159.011-12.014-28.923-40.423-48.058-72.06-48.058a78.375 78.375 0 0 0-31.947 6.828c-11.627-21.395-32.587-36.062-56.423-39.824-5.38-23.922-17.36-45.683-34.832-63.153-24.508-24.523-57.102-38.028-91.776-38.028h-.001c-34.675 0-67.269 13.505-91.774 38.025C21.505 120.522 8 153.113 8 187.781c0 34.667 13.504 67.265 38.026 91.787 19.441 19.441 44.761 32.262 71.819 36.48-.021.73-.046 1.46-.046 2.194 0 43.009 35.003 78 78.028 78h41.111v37.569c0 11.139 9.062 20.201 20.202 20.201h107.518c11.155 0 20.229-9.062 20.229-20.201v-37.569H426c43.009 0 78-34.99 78-78 0-43.025-34.991-78.028-78-78.028zM99.925 272.667c-3.126-6.326-5.815-13.202-8.096-20.454 21.47-4.363 45.326-5.617 68.536-3.453-19.889 10.204-34.633 28.646-40.169 50.363-7.467-5.557-14.382-14.54-20.271-26.456zm74.361-34.317c-28.491-4.197-58.804-3.236-85.656 2.314-3.58-14.791-5.582-30.76-5.978-46.873h104.19c-7.959 12.226-12.605 26.799-12.605 42.444 0 .699.029 1.409.049 2.115zM42.433 256.957c-13.401-18.393-21.134-40.172-22.282-63.165h50.546c.401 17.428 2.55 34.237 6.263 49.63-10.637 2.852-20.548 6.473-29.356 10.824a128.01 128.01 0 0 0-5.171 2.711zm5.177-135.645c8.828 4.365 18.709 8.004 29.339 10.878-3.709 15.383-5.853 32.182-6.253 49.601H20.15c1.145-23 8.877-44.782 22.283-63.173 1.683.933 3.413 1.835 5.177 2.694zm90.193-51.323c13.934 0 27.385 11.694 37.878 32.927 3.101 6.275 5.799 13.153 8.1 20.48-29.366 5.997-62.593 5.998-91.962-.002 2.283-7.262 4.975-14.146 8.106-20.478 10.492-21.233 23.944-32.927 37.878-32.927zm-.011 69.866c17.146 0 33.795-1.683 49.195-4.881 3.489 14.463 5.521 30.318 5.916 46.818H82.651c.394-16.094 2.39-32.043 5.961-46.816 15.395 3.198 32.038 4.879 49.18 4.879zm66.836 34.646c-.76-14.814-2.791-29.085-5.978-42.311 10.628-2.873 20.507-6.51 29.333-10.871a121.81 121.81 0 0 0 5.172-2.694 116.797 116.797 0 0 1 18.676 39.594c-17.759.098-34.121 6.164-47.203 16.282zm20.832-65.366c-.906.477-1.829.951-2.783 1.42-8.257 4.08-17.44 7.425-27.201 10.066-2.542-8.237-5.555-15.97-9.039-23.021-4.492-9.091-9.576-16.72-15.103-22.787 18.608 5.497 35.659 15.58 49.758 29.688a117.565 117.565 0 0 1 4.368 4.634zM104.27 74.813c-5.527 6.067-10.61 13.695-15.103 22.786-3.486 7.051-6.5 14.783-9.043 23.021-9.77-2.644-18.962-5.993-27.227-10.079a99.826 99.826 0 0 1-2.773-1.41 121.708 121.708 0 0 1 4.388-4.631c14.1-14.108 31.15-24.19 49.758-29.687zM50.12 266.444A116.95 116.95 0 0 1 52.926 265c8.154-4.028 17.336-7.383 27.202-10.035 2.542 8.235 5.555 15.967 9.039 23.018 4.466 9.035 9.562 16.682 15.129 22.774-18.705-5.496-35.656-15.547-49.784-29.675a119.746 119.746 0 0 1-4.392-4.638zM372.888 433.81c0 4.522-3.692 8.201-8.229 8.201H257.141c-4.446 0-8.202-3.756-8.202-8.201v-87.108c0-4.522 3.679-8.202 8.202-8.202h107.517c4.538 0 8.229 3.679 8.229 8.202v87.108zM347.519 326.5h-4.696v-22.687c0-17.61-14.314-31.937-31.909-31.937-17.61 0-31.937 14.327-31.937 31.937V326.5h-4.668v-22.687c0-20.184 16.421-36.604 36.604-36.604 20.184 0 36.605 16.421 36.605 36.604V326.5zm-16.697 0h-39.845v-22.687c0-10.993 8.943-19.937 19.937-19.937 10.978 0 19.909 8.944 19.909 19.937V326.5zM426 384.241h-41.112v-37.54c0-11.139-9.075-20.202-20.229-20.202h-5.14v-22.687c0-26.801-21.804-48.604-48.605-48.604s-48.604 21.804-48.604 48.604V326.5h-5.168c-11.139 0-20.202 9.062-20.202 20.202v37.54h-41.111c-36.408 0-66.028-29.607-66.028-66 0-31.155 22.117-58.345 52.589-64.65a5.999 5.999 0 0 0 4.709-6.818c-.571-3.592-.861-7.137-.861-10.538 0-36.408 29.62-66.028 66.028-66.028 26.084 0 49.778 15.413 60.364 39.265a6 6 0 0 0 8.369 2.827 66.295 66.295 0 0 1 31.783-8.134c28.051 0 53.103 17.772 62.338 44.223a6.016 6.016 0 0 0 6.057 4.01c1.957-.128 3.445-.186 4.824-.186 36.393 0 66 29.62 66 66.028-.001 36.393-29.608 66-66.001 66zm-14.923-199.948a6 6 0 1 1-10.405 5.976 25.33 25.33 0 0 0-11.032-10.252c-5.992-2.896-12.741-3.345-19.015-1.27a6 6 0 1 1-3.769-11.393c9.249-3.06 19.19-2.401 27.995 1.853a37.29 37.29 0 0 1 16.226 15.086zm-57.87-39.18a6 6 0 0 1 3.816-7.579c17.025-5.622 35.31-4.42 51.486 3.383 12.562 6.056 22.871 15.656 29.811 27.761a6 6 0 0 1-5.2 8.985 5.996 5.996 0 0 1-5.21-3.017 56.574 56.574 0 0 0-24.613-22.921c-13.36-6.445-28.458-7.438-42.511-2.797a5.998 5.998 0 0 1-7.579-3.815zm-19.285 234.045c0-12.687-10.321-23.008-23.008-23.008-12.702 0-23.036 10.321-23.036 23.008 0 6.894 3.106 13.361 8.314 17.693l-2.68 20.74a6 6 0 0 0 5.95 6.769h22.904a6 6 0 0 0 5.95-6.769l-2.682-20.749c5.192-4.335 8.288-10.801 8.288-17.684zm-17.646 9.625a6 6 0 0 0-3.008 5.998l2.272 17.58h-9.253l2.272-17.58a5.998 5.998 0 0 0-3.02-6.004c-3.492-1.955-5.662-5.641-5.662-9.618 0-6.07 4.951-11.008 11.036-11.008 6.07 0 11.008 4.938 11.008 11.008a11.064 11.064 0 0 1-5.645 9.624z" opacity="1" data-original="#2d5ede" class=""></path><path fill="#66c6ff" d="M364.659 338.5H257.142c-4.522 0-8.202 3.679-8.202 8.202v87.108c0 4.445 3.756 8.201 8.202 8.201H364.66c4.538 0 8.229-3.679 8.229-8.201v-87.108c-.001-4.523-3.693-8.202-8.23-8.202zm-36.343 79.092a6 6 0 0 1-5.95 6.769h-22.904a6 6 0 0 1-5.95-6.769l2.68-20.74c-5.208-4.332-8.314-10.8-8.314-17.693 0-12.687 10.334-23.008 23.036-23.008 12.687 0 23.008 10.321 23.008 23.008 0 6.883-3.096 13.349-8.287 17.685zM80.128 254.966c-9.866 2.652-19.048 6.007-27.202 10.035-.951.471-1.884.955-2.806 1.444a120.475 120.475 0 0 0 4.392 4.638c14.128 14.128 31.079 24.179 49.784 29.676-5.567-6.093-10.663-13.739-15.129-22.774-3.484-7.052-6.497-14.784-9.039-23.019z" opacity="1" data-original="#66c6ff"></path><path fill="#b7e5fc" d="M290.977 303.813V326.5h39.845v-22.687c0-10.993-8.931-19.937-19.909-19.937-10.993 0-19.936 8.944-19.936 19.937z" opacity="1" data-original="#b7e5fc"></path><path fill="#b7e5fc" d="M426 252.214c-1.379 0-2.867.057-4.824.186a6.016 6.016 0 0 1-6.057-4.01c-9.235-26.451-34.287-44.223-62.338-44.223a66.284 66.284 0 0 0-31.783 8.134 6.004 6.004 0 0 1-8.369-2.827c-10.586-23.853-34.28-39.265-60.364-39.265-36.408 0-66.028 29.62-66.028 66.028 0 3.4.29 6.946.861 10.538a6 6 0 0 1-4.709 6.818c-30.472 6.306-52.589 33.495-52.589 64.65 0 36.392 29.62 66 66.028 66h41.111v-37.54c0-11.139 9.062-20.202 20.202-20.202h5.168v-22.687c0-26.801 21.804-48.604 48.604-48.604s48.605 21.804 48.605 48.604V326.5h5.14c11.155 0 20.229 9.062 20.229 20.202v37.54H426c36.393 0 66-29.607 66-66 0-36.408-29.607-66.028-66-66.028z" opacity="1" data-original="#b7e5fc"></path><g fill="#66c6ff"><path d="M160.365 248.76c-23.21-2.164-47.067-.91-68.536 3.453 2.281 7.253 4.97 14.128 8.096 20.454 5.89 11.916 12.804 20.899 20.272 26.456 5.536-21.718 20.279-40.159 40.168-50.363zM82.652 193.792c.396 16.112 2.398 32.082 5.978 46.873 26.853-5.55 57.165-6.51 85.656-2.314-.02-.707-.049-1.417-.049-2.115 0-15.645 4.645-30.218 12.605-42.444zM195.477 120.621c9.761-2.641 18.944-5.986 27.201-10.066.954-.469 1.877-.943 2.783-1.42a120.57 120.57 0 0 0-4.367-4.635c-14.1-14.108-31.15-24.191-49.758-29.688 5.527 6.067 10.611 13.696 15.103 22.787 3.483 7.052 6.496 14.785 9.038 23.022zM70.697 193.792H20.151c1.148 22.993 8.881 44.773 22.282 63.165a128.01 128.01 0 0 1 5.171-2.711c8.808-4.351 18.719-7.972 29.356-10.824-3.713-15.393-5.862-32.202-6.263-49.63zM204.628 174.501c13.082-10.118 29.444-16.184 47.202-16.282a116.788 116.788 0 0 0-18.676-39.594 120.66 120.66 0 0 1-5.172 2.694c-8.826 4.361-18.705 7.998-29.333 10.871 3.188 13.226 5.219 27.497 5.979 42.311zM80.124 120.619c2.543-8.237 5.557-15.97 9.043-23.021 4.492-9.091 9.576-16.719 15.103-22.786-18.608 5.497-35.658 15.579-49.757 29.686-1.51 1.51-2.97 3.056-4.388 4.631.911.479 1.832.951 2.773 1.41 8.264 4.087 17.456 7.437 27.226 10.08zM186.987 134.974c-15.4 3.199-32.049 4.881-49.195 4.881-17.142 0-33.785-1.682-49.179-4.88-3.571 14.773-5.568 30.723-5.961 46.816h110.251c-.395-16.499-2.428-32.354-5.916-46.817zM76.949 132.191c-10.63-2.874-20.512-6.514-29.339-10.878a112.121 112.121 0 0 1-5.177-2.693c-13.406 18.391-21.138 40.173-22.283 63.173h50.547c.399-17.42 2.544-34.219 6.252-49.602zM91.819 123.395c29.369 5.999 62.596 5.999 91.962.001-2.302-7.327-5-14.205-8.1-20.48-10.493-21.233-23.944-32.927-37.877-32.927h-.001c-13.934 0-27.385 11.694-37.878 32.927-3.131 6.333-5.823 13.216-8.106 20.479z" fill="#66c6ff" opacity="1" data-original="#66c6ff"></path></g></g></svg>