<svg xmlns="http://www.w3.org/2000/svg" version="1.1" xmlns:xlink="http://www.w3.org/1999/xlink" width="512" height="512" x="0" y="0" viewBox="0 0 60 60" style="enable-background:new 0 0 512 512" xml:space="preserve" class=""><g><path fill="#60dcdd" d="M11 38a10 10 0 0 1-2.21-19.75.493.493 0 0 0 .38-.59 8.288 8.288 0 0 1-.13-2.45 7.988 7.988 0 0 1 11-6.61.5.5 0 0 0 .63-.23 14.022 14.022 0 0 1 26.29 5.19.5.5 0 0 0 .48.45 12 12 0 0 1 1.55 23.82z" opacity="1" data-original="#60dcdd"></path><path fill="#5498c8" d="M49 32v-6a3 3 0 0 0-3-3H14a3 3 0 0 0-3 3v6a3 3 0 0 0 3 3 3 3 0 0 0-3 3v6a3 3 0 0 0 3 3 3 3 0 0 0-3 3v6a3 3 0 0 0 3 3h32a3 3 0 0 0 3-3v-6a3 3 0 0 0-3-3 3 3 0 0 0 3-3v-6a3 3 0 0 0-3-3 3 3 0 0 0 3-3z" opacity="1" data-original="#5498c8" class=""></path><rect width="38" height="12" x="11" y="35" fill="#4184a9" rx="3" opacity="1" data-original="#4184a9"></rect><circle cx="17" cy="41" r="2" fill="#fde05e" opacity="1" data-original="#fde05e"></circle><circle cx="25" cy="41" r="2" fill="#60dcdd" opacity="1" data-original="#60dcdd"></circle><circle cx="17" cy="29" r="2" fill="#fde05e" opacity="1" data-original="#fde05e"></circle><circle cx="25" cy="29" r="2" fill="#60dcdd" opacity="1" data-original="#60dcdd"></circle><circle cx="17" cy="53" r="2" fill="#fde05e" opacity="1" data-original="#fde05e"></circle><circle cx="25" cy="53" r="2" fill="#60dcdd" opacity="1" data-original="#60dcdd"></circle><path fill="#ffffff" d="M25 19a1 1 0 0 1-.707-.293l-3-3a1 1 0 0 1 0-1.414l3-3a1 1 0 0 1 1.414 1.414L23.414 15l2.293 2.293A1 1 0 0 1 25 19zM35 19a1 1 0 0 1-.707-1.707L36.586 15l-2.293-2.293a1 1 0 0 1 1.414-1.414l3 3a1 1 0 0 1 0 1.414l-3 3A1 1 0 0 1 35 19zM29 19a1 1 0 0 1-.948-1.316l2-6a1 1 0 0 1 1.9.632l-2 6A1 1 0 0 1 29 19z" opacity="1" data-original="#ffffff"></path><path fill="#255a6b" d="M35 40h-1a1 1 0 0 1 0-2h1a1 1 0 0 1 0 2zM35 44h-1a1 1 0 0 1 0-2h1a1 1 0 0 1 0 2zM40 40h-1a1 1 0 0 1 0-2h1a1 1 0 0 1 0 2zM40 44h-1a1 1 0 0 1 0-2h1a1 1 0 0 1 0 2zM45 40h-1a1 1 0 0 1 0-2h1a1 1 0 0 1 0 2zM45 44h-1a1 1 0 0 1 0-2h1a1 1 0 0 1 0 2z" opacity="1" data-original="#255a6b"></path><g fill="#35718a"><path d="M35 52h-1a1 1 0 0 1 0-2h1a1 1 0 0 1 0 2zM35 56h-1a1 1 0 0 1 0-2h1a1 1 0 0 1 0 2zM40 52h-1a1 1 0 0 1 0-2h1a1 1 0 0 1 0 2zM40 56h-1a1 1 0 0 1 0-2h1a1 1 0 0 1 0 2zM45 52h-1a1 1 0 0 1 0-2h1a1 1 0 0 1 0 2zM45 56h-1a1 1 0 0 1 0-2h1a1 1 0 0 1 0 2zM35 28h-1a1 1 0 0 1 0-2h1a1 1 0 0 1 0 2zM35 32h-1a1 1 0 0 1 0-2h1a1 1 0 0 1 0 2zM40 28h-1a1 1 0 0 1 0-2h1a1 1 0 0 1 0 2zM40 32h-1a1 1 0 0 1 0-2h1a1 1 0 0 1 0 2zM45 28h-1a1 1 0 0 1 0-2h1a1 1 0 0 1 0 2zM45 32h-1a1 1 0 0 1 0-2h1a1 1 0 0 1 0 2z" fill="#35718a" opacity="1" data-original="#35718a"></path></g></g></svg>