<svg xmlns="http://www.w3.org/2000/svg" version="1.1" xmlns:xlink="http://www.w3.org/1999/xlink" width="512" height="512" x="0" y="0" viewBox="0 0 64 64" style="enable-background:new 0 0 512 512" xml:space="preserve" class=""><g><g fill="#389627"><path d="M44.633 20.347c-.985 2.923-2.4 6.557-2.606 9.963-.367 5.957 3.036 11.353 2.3 17.4a21.529 21.529 0 0 1-3.915 9.937L38 61a39.946 39.946 0 0 0 7.92-6.631c1.734-1.833 3.382-3.831 3.851-6.377s-.066-5.172-.538-7.68c-.7-3.7-2.014-7.525-2.014-11.312 0-4 1.169-7 2.339-12S47.219 3 47.219 3c0 2.345.065 4.736-.109 7.062a41.5 41.5 0 0 1-2.477 10.285zM22 61a24.257 24.257 0 0 1-2.774-15.185c.773-5.259 2.842-10.6.431-15.742-1.318-2.814-2.771-5.481-2.214-8.777S22 11 22 11s-2.681 1.57-3.386 2.009c-3.7 2.3-5.646 6.9-5.514 11.294a12.557 12.557 0 0 0 1 4.641c.932 2.135 2.262 4.133 2.654 6.467.669 3.989-.848 7.875-1.5 11.756C14.337 52.655 18.453 57.369 22 61z" fill="#389627" opacity="1" data-original="#389627" class=""></path><path d="M25.62 20.347c-1.354 2.923-3.3 6.557-3.584 9.963-.252 2.991.722 5.844 1.934 8.606.831 1.892 1.771 3.742 2.509 5.563A45.949 45.949 0 0 1 29.824 58.6l.156 2.4S34 53 34 47s-4.824-14-4.824-18 1.608-7 3.216-12-3.216-14-3.216-14a69.242 69.242 0 0 1-.15 7.062c-.385 3.738-1.92 7.078-3.406 10.285z" fill="#389627" opacity="1" data-original="#389627" class=""></path><path d="M39.742 47.164c-.652-3.881-2.169-7.767-1.5-11.756.392-2.334 1.722-4.332 2.654-6.467A12.557 12.557 0 0 0 41.9 24.3a12.969 12.969 0 0 0-6.179-11.7C35.021 12.18 33 11 33 11c-.149.776 1.134 2.518 1.521 3.18a29.1 29.1 0 0 1 2.144 4.285 11.885 11.885 0 0 1 .787 6.143c-.6 3.527-3.006 6.348-3.219 9.992-.221 3.8.993 7.495 1.54 11.218A24.257 24.257 0 0 1 33 61c3.547-3.631 7.663-8.345 6.742-13.836z" fill="#389627" opacity="1" data-original="#389627" class=""></path></g><path fill="#308021" d="M30.034 60.89A26.91 26.91 0 0 0 28 42a32.859 32.859 0 0 1-3.439-19.409 24 24 0 0 0-2.525 7.719c-.252 2.991.722 5.844 1.934 8.606.831 1.892 1.771 3.742 2.509 5.563A45.949 45.949 0 0 1 29.824 58.6s.148 2.273.155 2.378l.007.007zM32.511 16.49C30.457 18.746 27 23.373 27 29c0 4.87 3.331 8.627 5.941 12.176-1.42-4.648-3.765-9.385-3.765-12.176 0-4 1.608-7 3.216-12 .052-.162.08-.339.119-.51zM36.666 18.462a11.885 11.885 0 0 1 .787 6.143c-.6 3.527-3.006 6.348-3.219 9.992a26.591 26.591 0 0 0 .7 6.757C34.265 34.753 38.063 30.779 40 24c2-7-7-13-7-13-.149.776 1.134 2.518 1.521 3.18a29.1 29.1 0 0 1 2.145 4.282zM46 49c2-8 0-9-2-15a30.983 30.983 0 0 1-1.2-8.008 21.858 21.858 0 0 0-.778 4.318c-.367 5.957 3.036 11.353 2.3 17.4a21.529 21.529 0 0 1-3.915 9.937L38 61a21.638 21.638 0 0 0 8-12z" opacity="1" data-original="#308021" class=""></path><path fill="#77b86a" d="M48 19a17.2 17.2 0 0 0-.549 6.959c.4-2.7 1.249-5.291 2.107-8.959 1.169-5-2.339-14-2.339-14S50 12 48 19zM29.026 10.062a31.3 31.3 0 0 1-3.217 9.876A12.531 12.531 0 0 0 30 15c2-5-.824-12-.824-12a69.242 69.242 0 0 1-.15 7.062zM22 11s-6 3.92-6 10a10.771 10.771 0 0 0 2.536 6.647 10.871 10.871 0 0 1-1.093-6.347C18 18 22 11 22 11z" opacity="1" data-original="#77b86a" class=""></path><path fill="#308021" d="M19.226 45.815c.69-4.7 2.406-9.459 1.046-14.091A72.622 72.622 0 0 0 18 48c0 2.741 1.2 6.379 2.288 9.111a24.248 24.248 0 0 1-1.062-11.296zM28.386 57.82a29.151 29.151 0 0 1-2.144-4.285 11.887 11.887 0 0 1-.787-6.144 14.415 14.415 0 0 1 .951-3.086l-2.436-5.389c-.576 1.409-1.35 2.746-1.958 4.14a12.552 12.552 0 0 0-1 4.64 12.97 12.97 0 0 0 6.179 11.7c.7.419 2.722 1.6 2.721 1.6.144-.772-1.139-2.514-1.526-3.176z" opacity="1" data-original="#308021" class=""></path><path fill="#286b1c" d="M26.242 53.535a11.887 11.887 0 0 1-.787-6.144 14.415 14.415 0 0 1 .951-3.086l-2.253-4.984C22.948 45.039 21.71 56.566 29.907 61c.149-.776-1.134-2.518-1.521-3.18a29.151 29.151 0 0 1-2.144-4.285zM35.775 45.819A24.266 24.266 0 0 1 33 61a14.921 14.921 0 0 0 2.775-15.181z" opacity="1" data-original="#286b1c"></path></g></svg>