<svg xmlns="http://www.w3.org/2000/svg"
    viewBox="0 0 64 64"
    id="system-administrator-server">
    <path fill="#fff"
        d="M45 2c-7.7 0-15.46 1.72-16.78 5H5a3.009 3.009 0 0 0-3 3v24a3.009 3.009 0 0 0 3 3h1v9.81l-3.93 9.82A.937.937 0 0 0 2 57v3a2.006 2.006 0 0 0 2 2h38a2.006 2.006 0 0 0 2-2v-3a.937.937 0 0 0-.07-.37L40 46.81v-1.08a47.892 47.892 0 0 0 5 .27c8.45 0 17-2.06 17-6V8c0-3.94-8.55-6-17-6ZM4 10a1 1 0 0 1 1-1h28a1 1 0 0 1 1 1v5H4Zm1 25a1 1 0 0 1-1-1V17h30v7h-6v2h9a1 1 0 0 1 1 1v19H8V27a1 1 0 0 1 1-1h9v-2H9a3.009 3.009 0 0 0-3 3v8Zm37 25H4v-2h38Zm-23.72-4 .5-2h8.44l.5 2Zm23.24 0H29.78l-.81-3.24A1 1 0 0 0 28 52H18a1 1 0 0 0-.97.76L16.22 56H4.48l3.2-8h30.64ZM60 40c0 1.63-5.84 4-15 4a47.892 47.892 0 0 1-5-.27v-6a47.892 47.892 0 0 0 5 .27c5.97 0 11.98-1.03 15-3.03Zm0-8c0 1.63-5.84 4-15 4a47.892 47.892 0 0 1-5-.27v-6a47.892 47.892 0 0 0 5 .27c5.97 0 11.98-1.03 15-3.03Zm0-8c0 1.63-5.84 4-15 4a47.892 47.892 0 0 1-5-.27V27a3.009 3.009 0 0 0-3-3h-1v-2.86a45.386 45.386 0 0 0 9 .86c5.97 0 11.98-1.03 15-3.03Zm0-8c0 1.63-5.84 4-15 4a43.564 43.564 0 0 1-9-.89v-5.97a45.386 45.386 0 0 0 9 .86c5.97 0 11.98-1.03 15-3.03Zm-15-4a43.564 43.564 0 0 1-9-.89V10a3.009 3.009 0 0 0-3-3h-2.37C32.37 5.55 37.6 4 45 4c9.16 0 15 2.37 15 4s-5.84 4-15 4Z">
    </path>
    <path fill="#fff"
        d="M56 14h2v2h-2zM52 15h2v2h-2zM48 16h2v2h-2zM56 22h2v2h-2zM52 23h2v2h-2zM48 24h2v2h-2zM56 30h2v2h-2zM52 31h2v2h-2zM48 32h2v2h-2zM56 38h2v2h-2zM52 39h2v2h-2zM48 40h2v2h-2zM39 7h12v2H39zM6 11h2v2H6zM10 11h2v2h-2zM14 11h2v2h-2zM27.77 34.98l-1.87-1.24A3.976 3.976 0 0 0 27 31v-1h1v-2h-1a4 4 0 0 0-3-3.86V23h-2v1.14A4 4 0 0 0 19 28h-1v2h1v1a3.976 3.976 0 0 0 1.1 2.74l-1.87 1.24A4.987 4.987 0 0 0 16 39.14V41a1 1 0 0 0 1 1h12a1 1 0 0 0 1-1v-1.86a4.987 4.987 0 0 0-2.23-4.16ZM24 26.28A2 2 0 0 1 25 28h-1Zm-2 0V28h-1a2 2 0 0 1 1-1.72ZM21 30h4v1a2 2 0 0 1-4 0Zm3.3 5.07L23 36.51l-1.3-1.44.31-.21a3.57 3.57 0 0 0 1.98 0ZM28 40H18v-.86a3.006 3.006 0 0 1 1.34-2.5l.68-.45 2.24 2.48a.995.995 0 0 0 1.48 0l2.24-2.48.68.45a3.006 3.006 0 0 1 1.34 2.5Z">
    </path>
</svg>