<svg width="2029" height="1427" viewBox="0 0 2029 1427" fill="none" xmlns="http://www.w3.org/2000/svg">
<path d="M940.974 415.066V70.601L582.379 121.404V415.066H940.974ZM974.852 415.066H1446.38V0L974.852 67.7649V415.066ZM940.974 448.943H582.379V745.418L940.974 793.403V448.943ZM974.852 448.943V799.057L1446.38 864V448.943H974.852Z" fill="white"/>
<path d="M1366.55 1366.1C1366.55 1383.68 1360.69 1398.92 1347.8 1408.29C1334.9 1418.84 1317.33 1423.52 1295.06 1423.52C1286.85 1423.52 1277.47 1422.35 1268.09 1420.01C1257.55 1417.67 1250.51 1414.16 1247 1411.81V1382.51C1252.86 1388.37 1261.06 1393.05 1271.62 1396.57C1282.16 1400.09 1290.37 1402.43 1299.75 1402.43C1327.87 1402.43 1340.76 1391.88 1340.76 1369.61C1340.76 1360.23 1337.25 1353.2 1331.39 1346.16C1325.53 1339.14 1313.81 1330.92 1295.06 1320.38C1277.47 1309.83 1264.58 1300.45 1257.55 1292.25C1250.52 1282.87 1247 1272.32 1247 1259.43C1247 1243.02 1252.86 1228.96 1265.76 1218.41C1278.65 1207.86 1295.06 1202 1314.98 1202C1333.73 1202 1347.8 1204.35 1357.17 1210.21V1238.34C1345.45 1228.96 1331.39 1225.44 1313.81 1225.44C1302.09 1225.44 1292.71 1228.96 1284.5 1234.82C1277.47 1240.68 1272.78 1248.89 1272.78 1258.27C1272.78 1265.3 1273.96 1271.16 1276.31 1275.85C1278.65 1280.53 1282.16 1284.05 1288.02 1288.74C1293.88 1293.43 1302.08 1298.12 1314.97 1305.15C1333.73 1315.69 1347.79 1326.24 1354.82 1335.62C1363.03 1342.66 1366.55 1354.38 1366.55 1366.1ZM1520.09 1349.69H1411.08C1411.08 1367.27 1415.78 1380.17 1425.15 1389.54C1433.35 1398.92 1446.25 1403.6 1461.48 1403.6C1479.06 1403.6 1494.3 1397.75 1509.54 1387.2V1410.64C1496.65 1420.02 1477.89 1425.88 1455.63 1425.88C1433.35 1425.88 1416.94 1418.84 1404.05 1404.78C1392.33 1390.72 1385.3 1370.79 1385.3 1346.17C1385.3 1330.93 1388.81 1316.87 1394.68 1305.15C1400.54 1292.26 1408.74 1282.88 1420.46 1275.85C1431.01 1268.82 1442.73 1265.3 1456.8 1265.3C1476.72 1265.3 1491.96 1272.33 1503.67 1285.23C1515.4 1298.12 1520.09 1316.87 1520.09 1339.14L1520.09 1349.69ZM1495.47 1328.59C1495.47 1314.52 1491.96 1302.8 1484.92 1295.77C1477.89 1287.56 1468.52 1284.05 1456.8 1284.05C1445.08 1284.05 1435.7 1288.74 1427.49 1296.95C1419.29 1305.15 1414.6 1315.7 1412.25 1329.76H1495.47V1328.59ZM1627.91 1291.09C1623.23 1287.57 1617.36 1286.4 1609.16 1286.4C1598.61 1286.4 1589.23 1291.09 1582.21 1301.64C1575.17 1312.18 1571.66 1325.08 1571.66 1341.49V1420.02H1547.04V1266.47H1571.66V1298.12H1572.82C1576.35 1287.57 1581.03 1279.37 1588.06 1273.51C1595.1 1267.64 1603.3 1264.13 1612.68 1264.13C1618.54 1264.13 1624.4 1265.3 1627.91 1266.47V1291.09ZM1782.63 1266.47L1721.68 1420.02H1697.06L1638.46 1266.47H1665.42L1704.09 1377.82C1706.44 1383.68 1707.61 1390.71 1708.78 1398.91H1709.95C1711.13 1391.88 1712.29 1384.85 1714.65 1377.82L1755.66 1265.3H1782.62V1266.47L1782.63 1266.47ZM1920.93 1349.69H1813.1C1813.1 1367.27 1817.79 1380.17 1827.16 1389.54C1835.37 1398.92 1848.26 1403.6 1863.5 1403.6C1881.08 1403.6 1896.32 1397.75 1911.55 1387.2V1410.64C1898.66 1420.02 1879.91 1425.88 1857.64 1425.88C1835.37 1425.88 1818.95 1418.84 1806.07 1404.78C1794.35 1390.72 1787.31 1370.79 1787.31 1346.17C1787.31 1330.93 1790.83 1316.87 1796.69 1305.15C1802.55 1292.26 1810.76 1282.88 1822.48 1275.85C1833.03 1268.82 1844.75 1265.3 1858.82 1265.3C1878.73 1265.3 1893.97 1272.33 1905.69 1285.23C1917.41 1298.12 1922.1 1316.87 1922.1 1339.14V1349.69H1920.93L1920.93 1349.69ZM1896.32 1328.59C1896.32 1314.52 1892.8 1302.8 1885.77 1295.77C1878.74 1287.56 1869.37 1284.05 1857.64 1284.05C1845.91 1284.05 1836.55 1288.74 1828.33 1296.95C1820.13 1305.15 1815.44 1315.7 1813.1 1329.76H1896.32V1328.59ZM2028.76 1291.09C2024.07 1287.57 2018.21 1286.4 2010 1286.4C1999.46 1286.4 1990.08 1291.09 1983.05 1301.64C1976.02 1312.18 1972.5 1325.08 1972.5 1341.49V1420.02H1947.89V1266.47H1972.5V1298.12H1973.68C1977.19 1287.57 1981.88 1279.37 1988.91 1273.51C1995.94 1267.64 2004.15 1264.13 2013.52 1264.13C2019.38 1264.13 2025.24 1265.3 2028.76 1266.47V1291.09H2028.76Z" fill="white"/>
<path d="M278.951 1206.9L218.002 1421.38H188.705L144.161 1264.33C142.995 1258.46 141.818 1251.43 140.65 1242.06H139.473L135.962 1263.16L91.4204 1420.21H62.1192L0 1206.9H26.9581L72.6673 1372.15C75.0086 1379.19 76.184 1386.22 76.184 1393.25H77.3537C77.3537 1387.39 79.695 1380.36 82.0439 1372.15L130.102 1206.89H154.709L200.42 1373.33C201.596 1379.19 202.764 1386.22 203.943 1393.25C203.943 1388.56 206.284 1381.54 207.456 1372.15L251.993 1206.89L278.951 1206.9ZM328.181 1217.44C328.181 1222.13 327.006 1225.65 323.493 1229.16C319.974 1232.68 316.46 1233.85 311.768 1233.85C307.085 1233.85 303.564 1232.68 300.05 1229.16C296.533 1225.65 295.363 1222.13 295.363 1217.44C295.363 1212.75 296.531 1209.24 300.05 1205.72C303.566 1202.21 307.083 1201.04 311.768 1201.04C316.458 1201.04 319.976 1202.21 323.493 1205.72C325.836 1209.24 328.181 1212.76 328.181 1217.44ZM323.491 1421.38H298.878V1267.84H323.491V1421.38ZM487.579 1421.38H462.97V1333.47C462.97 1300.66 451.242 1284.25 427.803 1284.25C416.083 1284.25 405.535 1288.94 397.33 1298.32C389.129 1307.69 385.61 1319.41 385.61 1333.47V1421.38H360.999V1267.84H385.612V1293.63H386.786C398.503 1273.7 414.917 1264.33 437.183 1264.33C453.589 1264.33 466.481 1270.19 475.865 1280.73C485.239 1291.28 488.756 1307.69 488.756 1327.62V1421.38H487.579ZM658.698 1421.38H634.085V1395.6H632.917C621.198 1415.53 603.61 1424.9 580.173 1424.9C560.25 1424.9 545.012 1417.87 533.292 1403.8C521.574 1389.74 515.712 1370.98 515.712 1347.54C515.712 1321.76 521.574 1301.83 534.464 1286.59C547.357 1271.36 563.767 1263.16 586.029 1263.16C607.131 1263.16 622.365 1271.36 631.74 1287.77H632.917V1194H657.528V1421.38L658.698 1421.38ZM634.083 1352.23V1329.96C634.083 1317.06 629.395 1306.52 621.192 1298.32C612.987 1290.11 602.441 1285.42 590.719 1285.42C575.483 1285.42 563.763 1291.28 555.556 1301.83C547.351 1312.38 542.661 1327.62 542.661 1347.54C542.661 1365.12 546.181 1379.19 554.386 1389.74C562.589 1400.28 573.134 1404.97 587.204 1404.97C601.263 1404.97 611.813 1400.28 620.024 1389.74C629.393 1380.36 634.083 1367.47 634.083 1352.23ZM840.367 1344.02C840.367 1368.64 833.34 1388.56 819.271 1402.63C805.206 1417.87 786.449 1424.9 763.014 1424.9C740.744 1424.9 721.993 1417.87 709.099 1403.8C695.031 1389.74 689.171 1369.81 689.171 1346.37C689.171 1320.59 696.206 1300.66 710.269 1286.6C724.338 1271.36 743.091 1264.33 767.704 1264.33C789.975 1264.33 808.725 1271.36 821.612 1285.43C833.338 1299.49 840.367 1319.41 840.367 1344.02ZM814.579 1345.19C814.579 1326.45 809.895 1311.21 801.69 1300.66C793.481 1290.11 780.589 1285.42 765.353 1285.42C750.117 1285.42 737.223 1291.28 727.847 1300.66C718.47 1311.21 713.784 1326.45 713.784 1345.19C713.784 1363.95 718.47 1378.02 727.847 1388.56C737.225 1399.11 750.117 1403.8 765.353 1403.8C781.761 1403.8 793.485 1399.11 801.69 1388.56C811.062 1379.19 814.579 1363.95 814.579 1345.19ZM1064.23 1267.84L1018.52 1421.38H992.734L961.089 1311.21C959.921 1307.69 958.748 1303.01 958.748 1297.15H957.576C957.576 1300.66 956.408 1305.35 954.063 1311.21L920.066 1421.38H895.457L848.576 1267.84H874.357L906.005 1383.88C907.173 1387.39 907.173 1392.08 908.348 1397.94H909.516C909.516 1394.42 910.688 1389.74 911.857 1383.88L947.022 1269.01H969.29L1000.94 1385.05C1002.11 1388.56 1002.11 1393.25 1003.28 1399.11H1004.46C1004.46 1394.42 1005.62 1389.74 1006.8 1385.05L1038.44 1269.01H1064.22V1267.84H1064.23ZM1168.54 1380.36C1168.54 1393.25 1163.85 1404.97 1153.31 1413.18C1142.75 1421.38 1129.86 1426.07 1112.28 1426.07C1098.22 1426.07 1085.33 1422.55 1074.78 1416.69V1389.74C1086.5 1399.11 1100.56 1404.97 1114.63 1404.97C1134.55 1404.97 1143.93 1397.94 1143.93 1383.88C1143.93 1378.02 1141.59 1373.33 1138.07 1369.81C1134.55 1366.3 1125.18 1361.61 1112.29 1354.58C1098.22 1348.72 1088.84 1342.86 1082.98 1335.82C1077.13 1328.79 1074.78 1320.59 1074.78 1308.87C1074.78 1295.97 1079.47 1285.42 1090.02 1277.22C1100.56 1269.01 1113.46 1264.33 1128.69 1264.33C1140.42 1264.33 1152.14 1266.67 1161.51 1271.36V1295.97C1150.96 1288.94 1140.42 1285.42 1126.35 1285.42C1118.14 1285.42 1112.29 1287.77 1106.43 1291.28C1101.74 1294.8 1099.39 1300.66 1099.39 1306.52C1099.39 1313.55 1101.74 1318.24 1105.25 1321.76C1108.77 1325.27 1116.97 1329.96 1128.7 1334.65C1142.76 1340.51 1153.31 1347.54 1159.17 1354.58C1166.19 1361.61 1168.54 1369.81 1168.54 1380.36Z" fill="white"/>
</svg>
